<svg width="960" height="120" xmlns="http://www.w3.org/2000/svg"><path fill="#9AC0CD" d="M0 0h960v120H0z"/><path d="M0 59l13.3-3.3c13.4-3.4 40-10 66.7-3.2 26.7 6.8 53.3 27.2 80 37.2 26.7 10 53.3 9.6 80 6.8 26.7-2.8 53.3-8.2 80-6.5 26.7 1.7 53.3 10.3 80 13.8 26.7 3.5 53.3 1.9 80-4.8 26.7-6.7 53.3-18.3 80-27.2 26.7-8.8 53.3-14.8 80-16.1 26.7-1.4 53.3 2 80 7 26.7 5 53.3 11.6 80 18.3 26.7 6.7 53.3 13.3 80 14.8 26.7 1.5 53.3-2.1 66.7-4L960 90V0H0z" fill="#9ac0cd"/><path d="M0 30l13.3.5c13.4.5 40 1.5 66.7 11C106.7 51 133.3 69 160 73c26.7 4 53.3-6 80-11.5 26.7-5.5 53.3-6.5 80-2.3 26.7 4.1 53.3 13.5 80 9.5 26.7-4 53.3-21.4 80-28.4 26.7-7 53.3-3.6 80-2 26.7 1.7 53.3 1.7 80 8.7 26.7 7 53.3 21 80 18.7 26.7-2.4 53.3-21 80-21.2 26.7-.2 53.3 18.2 80 21.3C906.7 69 933.3 57 946.7 51l13.3-6V0H0z" fill="#8ab1c4"/><path d="M0 20l13.3 1.8c13.4 1.9 40 5.5 66.7 5 26.7-.5 53.3-5.1 80-8.3 26.7-3.2 53.3-4.8 80-5.7 26.7-.8 53.3-.8 80 3.2 26.7 4 53.3 12 80 18.7 26.7 6.6 53.3 12 80 8.8 26.7-3.2 53.3-14.8 80-15 26.7-.2 53.3 11.2 80 14.8 26.7 3.7 53.3-.3 80-5.3 26.7-5 53.3-11 80-15 26.7-4 53.3-6 80 1.8 26.7 7.9 53.3 25.5 66.7 34.4L960 68V0H0z" fill="#7da2bc"/><path d="M0 34l13.3-3.5C26.7 27 53.3 20 80 21.3c26.7 1.4 53.3 11 80 9.5 26.7-1.5 53.3-14.1 80-14.6 26.7-.5 53.3 11.1 80 17.1 26.7 6 53.3 6.4 80 3.7 26.7-2.7 53.3-8.3 80-12.7 26.7-4.3 53.3-7.3 80-8 26.7-.6 53.3 1 80 2.2 26.7 1.2 53.3 1.8 80 3.3 26.7 1.5 53.3 3.9 80 6.4 26.7 2.5 53.3 5.1 80 1.5C906.7 26 933.3 16 946.7 11L960 6V0H0z" fill="#7393b3"/></svg>